STARTFONT 2.1
COMMENT This font was automatically resized by bdfresize-1.4
COMMENT   mag_x = 7/6, mag_y = 5/8, blackness = 3
FONT -tomabechi-fixed-medium-r-normal--24-240-72-72-m-120-MuleTibetan-1
SIZE 24 72 72
FONTBOUNDINGBOX 12 26 0 -9
STARTPROPERTIES 22
FOUNDRY "tomabechi"
FAMILY_NAME "fixed"
WEIGHT_NAME "medium"
SLANT "r"
SETWIDTH_NAME "normal"
ADD_STYLE_NAME ""
PIXEL_SIZE 24
POINT_SIZE 240
RESOLUTION_X 72
RESOLUTION_Y 72
SPACING "m"
AVERAGE_WIDTH 120
CHARSET_REGISTRY "MuleTibetan"
CHARSET_ENCODING "1"
STRIKEOUT_ASCENT 20
STRIKEOUT_DESCENT 8
X_HEIGHT 22
COPYRIGHT "Public Domain, original design by Toru Tomabechi 1999"
WEIGHT 10
FONT_ASCENT 17
FONT_DESCENT 7
DEFAULT_CHAR 8481
ENDPROPERTIES
CHARS 8
STARTCHAR space
ENCODING 8481
SWIDTH 500 0
DWIDTH 12 0
BBX 12 18 0 -4
BITMAP
fff0
8010
8010
8010
8010
8010
8010
8010
8010
8010
8010
8010
8010
8010
8010
8010
8010
fff0
ENDCHAR
STARTCHAR TIBETAN MARK INTERSYLLABIC TSHEG
ENCODING 8507
SWIDTH 500 0
DWIDTH 12 0
BBX 5 3 3 10
BITMAP
f8
70
20
ENDCHAR
STARTCHAR TIBETAN MARK SHAD
ENCODING 8509
SWIDTH 500 0
DWIDTH 12 0
BBX 5 22 4 -9
BITMAP
f8
f8
70
70
70
70
60
60
60
60
60
20
20
20
20
20
20
20
20
20
20
20
ENDCHAR
STARTCHAR c213f
ENCODING 8511
SWIDTH 1000 0
DWIDTH 12 0
BBX 5 22 3 -9
BITMAP
f8
70
20
00
f8
f8
70
70
70
70
60
60
60
60
60
60
20
20
20
20
20
20
ENDCHAR
STARTCHAR c2140
ENCODING 8512
SWIDTH 1000 0
DWIDTH 12 0
BBX 5 22 3 -9
BITMAP
f8
70
20
f8
70
20
00
f8
f8
70
70
70
60
60
60
60
20
20
20
20
20
20
ENDCHAR
STARTCHAR c2141
ENCODING 8513
SWIDTH 1000 0
DWIDTH 12 0
BBX 7 22 2 -9
BITMAP
ee
44
00
7c
38
10
00
7c
7c
38
38
38
30
30
30
30
10
10
10
10
10
10
ENDCHAR
STARTCHAR TIBETAN MARK GTER TSHEG
ENCODING 8516
SWIDTH 500 0
DWIDTH 12 0
BBX 7 14 2 -2
BITMAP
7c
c6
c6
46
7c
00
fe
fe
00
7c
c6
c6
c6
7c
ENDCHAR
STARTCHAR c2260
ENCODING 8800
SWIDTH 1000 0
DWIDTH 12 0
BBX 7 14 2 -2
BITMAP
7c
c6
c6
46
7c
00
fe
fe
00
7c
c6
c6
c6
7c
ENDCHAR
ENDFONT
